<svg width="140" height="186" viewBox="0 0 140 186" fill="none" xmlns="http://www.w3.org/2000/svg">
<path d="M70 186L90 174V126L120 108V84L90 102V66L140 36V12L70 54V186Z" fill="#CC3DCC"/>
<path d="M140 12L120 0L70 30L20 0L0 12L70 54L140 12Z" fill="#DD99FF"/>
<path d="M90 102L120 84L100 72L90 78V102Z" fill="#DD99FF"/>
<path d="M40 60.25L20 48.25V132L40 120V60.25Z" fill="#CC3DCC"/>
<path d="M50 126L40 120L20 132L50 150V126Z" fill="#DD99FF"/>
<path fill-rule="evenodd" clip-rule="evenodd" d="M0 11.9999L70 53.9999V186L0 144V11.9999ZM20 48.2499L50 66.2499V150L20 132V48.2499Z" fill="#9629CC"/>
</svg>
