<svg width="128" height="128" viewBox="0 0 128 128" fill="none" xmlns="http://www.w3.org/2000/svg">
<path d="M64 123.864L76.7897 116.19V85.4945L95.9742 73.9838V58.6362L76.7897 70.1469V47.1255L108.764 27.941V12.5934L64 39.4517V123.864Z" fill="#CC3DCC"/>
<path d="M108.764 12.5933L95.9742 4.91954L64 24.1041L32.0258 4.91954L19.2361 12.5933L64 39.4517L108.764 12.5933Z" fill="#DD99FF"/>
<path d="M76.7897 70.1469L95.9742 58.6362L83.1845 50.9624L76.7897 54.7993V70.1469Z" fill="#DD99FF"/>
<path d="M44.8155 43.4484L32.0258 35.7746V89.3314L44.8155 81.6576V43.4484Z" fill="#CC3DCC"/>
<path d="M51.2103 85.4945L44.8155 81.6576L32.0258 89.3314L51.2103 100.842V85.4945Z" fill="#DD99FF"/>
<path fill-rule="evenodd" clip-rule="evenodd" d="M19.2361 12.5933L64 39.4516V123.863L19.2361 97.0051V12.5933ZM32.0258 35.7746L51.2103 47.2853V100.842L32.0258 89.3313V35.7746Z" fill="#9629CC"/>
</svg>
