<svg width="32" height="32" fill="none"
    xmlns="http://www.w3.org/2000/svg">
    <g clip-path="url(#a)">
        <path d="M16.667 1C8.195 1 1.333 7.861 1.333 16.333c0 6.786 4.39 12.516 10.484 14.547.767.135 1.054-.325 1.054-.728 0-.364-.02-1.57-.02-2.856-3.851.71-4.847-.939-5.154-1.8-.173-.441-.92-1.803-1.573-2.167-.536-.288-1.303-.997-.019-1.016 1.208-.018 2.07 1.112 2.359 1.572 1.38 2.32 3.584 1.667 4.465 1.264.134-.996.536-1.666.978-2.05-3.412-.383-6.976-1.706-6.976-7.571 0-1.667.593-3.047 1.57-4.12-.153-.384-.69-1.956.154-4.064 0 0 1.284-.403 4.217 1.572a14.212 14.212 0 0 1 3.833-.517c1.303 0 2.607.173 3.834.517 2.933-1.993 4.216-1.572 4.216-1.572.844 2.108.306 3.68.153 4.064.977 1.073 1.572 2.433 1.572 4.12 0 5.884-3.584 7.187-6.996 7.57.556.48 1.035 1.4 1.035 2.838 0 2.05-.02 3.699-.02 4.216 0 .403.289.883 1.054.73C27.612 28.848 32 23.098 32 16.332 32 7.861 25.139 1 16.667 1Z" fill="#fff"/>
    </g>
    <defs>
        <clipPath id="a">
            <path fill="#fff" d="M0 0h32v32H0z"/>
        </clipPath>
    </defs>
</svg>