<svg width="72" height="72" viewBox="0 0 210 210" fill="none"
    xmlns="http://www.w3.org/2000/svg">
    <rect x=".1" y=".2" width="209.6" height="209.6" rx="40.9" fill="#1767CE"/>
    <g clip-path="url(#a)" fill="#fff">
        <path d="M46 76.9H28.3v52.8h17.5V76.9ZM100.2 76.9H82.6v52.8h17.6V76.9ZM80 129.7 69.9 85.3c-.5-2.4-1.8-4.4-3.7-6-2-1.6-4.2-2.4-6.8-2.4H48.7l12 52.8H80ZM144.4 76.9h-17.6v52.8h17.6V76.9ZM174.1 117.8a1353.1 1353.1 0 0 0-7.5-12c-.6-1-.9-1.8-.9-2.5 0-.8.3-1.5.8-2.4l15-24H162A1467 1467 0 0 0 148 99.7a7.1 7.1 0 0 0-1.2 3.6c0 1 .5 2.3 1.3 3.7l1.6 2.6a275.3 275.3 0 0 0 6.1 9.8 483.4 483.4 0 0 0 6.4 10.3h19.3a1800.6 1800.6 0 0 1-7.3-12ZM118.8 77.4a10.6 10.6 0 0 0-16 9c0 2 .4 3.7 1.4 5.3a10.6 10.6 0 0 0 9.3 5.3 10.4 10.4 0 0 0 9.2-5.3c1-1.6 1.4-3.4 1.4-5.3 0-2-.5-3.7-1.4-5.3-1-1.5-2.3-2.8-3.9-3.7Z"/>
    </g>
    <defs>
        <clipPath id="a">
            <path fill="#fff" transform="translate(29.5 72.2)" d="M0 0h152.3v63.9H0z"/>
        </clipPath>
    </defs>
</svg>