<svg width="72" height="72" fill="none"
    xmlns="http://www.w3.org/2000/svg">
    <g filter="url(#a)">
        <rect width="72" height="72" rx="16" fill="url(#b)"/>
    </g>
    <path d="m36 57 4.3-2.6V44.1l6.4-3.9v-5.1l-6.4 3.8v-7.7L51 24.7v-5.1l-15 9V57Z" fill="#98BEED"/>
    <path d="M51 19.6 46.7 17 36 23.5 25.3 17 21 19.6l15 9 15-9ZM40.3 39l6.4-4-4.3-2.5-2.1 1.3v5.1Z" fill="#fff"/>
    <path d="m29.6 30-4.3-2.6v18l4.3-2.6V30Z" fill="#98BEED"/>
    <path d="m31.7 44.1-2.1-1.3-4.3 2.6 6.4 3.9V44Z" fill="#fff"/>
    <defs>
        <linearGradient id="b" x1="44.5" y1="0" x2="26.5" y2="72" gradientUnits="userSpaceOnUse">
            <stop stop-color="#3BB1FF"/>
            <stop offset=".5" stop-color="#0075C3"/>
            <stop offset="1" stop-color="#003D66"/>
        </linearGradient>
        <filter id="a" x="0" y="0" width="72" height="73" filterUnits="userSpaceOnUse" color-interpolation-filters="sRGB">
            <feFlood flood-opacity="0" result="BackgroundImageFix"/>
            <feBlend in="SourceGraphic" in2="BackgroundImageFix" result="shape"/>
            <feColorMatrix in="SourceAlpha" values="0 0 0 0 0 0 0 0 0 0 0 0 0 0 0 0 0 0 127 0" result="hardAlpha"/>
            <feOffset dy="1"/>
            <feGaussianBlur stdDeviation=".5"/>
            <feComposite in2="hardAlpha" operator="arithmetic" k2="-1" k3="1"/>
            <feColorMatrix values="0 0 0 0 1 0 0 0 0 1 0 0 0 0 1 0 0 0 0.1 0"/>
            <feBlend in2="shape" result="effect1_innerShadow_417_2385"/>
        </filter>
    </defs>
</svg>