<svg width="48" height="48" viewBox="0 0 48 48" fill="none" xmlns="http://www.w3.org/2000/svg">
<rect width="48" height="48" rx="12" fill="#4B154B"/>
<g clip-path="url(#clip0_12_43)">
<path d="M14.8535 28.1575C14.8535 29.9969 13.3669 31.4835 11.5276 31.4835C9.68818 31.4835 8.20157 29.9969 8.20157 28.1575C8.20157 26.3181 9.68818 24.8315 11.5276 24.8315H14.8535V28.1575ZM16.5165 28.1575C16.5165 26.3181 18.0031 24.8315 19.8425 24.8315C21.6819 24.8315 23.1685 26.3181 23.1685 28.1575V36.4724C23.1685 38.3118 21.6819 39.7984 19.8425 39.7984C18.0031 39.7984 16.5165 38.3118 16.5165 36.4724V28.1575Z" fill="#E01E5A"/>
<path d="M19.8425 14.8032C18.0032 14.8032 16.5165 13.3165 16.5165 11.4772C16.5165 9.6378 18.0032 8.15118 19.8425 8.15118C21.6819 8.15118 23.1685 9.6378 23.1685 11.4772V14.8032H19.8425ZM19.8425 16.4913C21.6819 16.4913 23.1685 17.978 23.1685 19.8173C23.1685 21.6567 21.6819 23.1433 19.8425 23.1433H11.5024C9.66301 23.1433 8.17639 21.6567 8.17639 19.8173C8.17639 17.978 9.66301 16.4913 11.5024 16.4913H19.8425Z" fill="#36C5F0"/>
<path d="M33.1717 19.8173C33.1717 17.978 34.6583 16.4913 36.4976 16.4913C38.337 16.4913 39.8236 17.978 39.8236 19.8173C39.8236 21.6567 38.337 23.1433 36.4976 23.1433H33.1717V19.8173ZM31.5087 19.8173C31.5087 21.6567 30.022 23.1433 28.1827 23.1433C26.3433 23.1433 24.8567 21.6567 24.8567 19.8173V11.4772C24.8567 9.6378 26.3433 8.15118 28.1827 8.15118C30.022 8.15118 31.5087 9.6378 31.5087 11.4772V19.8173Z" fill="#2EB67D"/>
<path d="M28.1827 33.1465C30.022 33.1465 31.5087 34.6331 31.5087 36.4724C31.5087 38.3118 30.022 39.7984 28.1827 39.7984C26.3433 39.7984 24.8567 38.3118 24.8567 36.4724V33.1465H28.1827ZM28.1827 31.4835C26.3433 31.4835 24.8567 29.9969 24.8567 28.1575C24.8567 26.3181 26.3433 24.8315 28.1827 24.8315H36.5228C38.3622 24.8315 39.8488 26.3181 39.8488 28.1575C39.8488 29.9969 38.3622 31.4835 36.5228 31.4835H28.1827Z" fill="#ECB22E"/>
</g>
<defs>
<clipPath id="clip0_12_43">
<rect width="32" height="32" fill="white" transform="translate(8 8)"/>
</clipPath>
</defs>
</svg>
